<svg width="16" height="16" viewBox="0 0 16 16" fill="none" xmlns="http://www.w3.org/2000/svg">
<path fill-rule="evenodd" clip-rule="evenodd" d="M10.0052 9.48562H10.5881L14.25 13.1563L13.1554 14.2509L9.48618 10.5868V10.0054L9.28356 9.80424C8.44885 10.5193 7.36747 10.9539 6.18184 10.9539C3.5463 10.9539 1.40997 8.81756 1.40997 6.18202C1.40997 3.54648 3.5463 1.41015 6.18184 1.41015C8.81738 1.41015 10.9537 3.54648 10.9537 6.18202C10.9537 7.36765 10.5184 8.44976 9.80259 9.28447L10.0052 9.48562ZM2.87827 6.18212C2.87827 8.00718 4.35682 9.48572 6.18188 9.48572C8.0062 9.48572 9.48548 8.00718 9.48548 6.18212C9.48548 4.3578 8.0062 2.87852 6.18188 2.87852C4.35682 2.87852 2.87827 4.3578 2.87827 6.18212Z" fill="#1C1C1D"/>
</svg>
